<svg id="visual" viewBox="0 0 960 540" width="960" height="540" xmlns="http://www.w3.org/2000/svg" xmlns:xlink="http://www.w3.org/1999/xlink" version="1.1">
<rect x="0" y="0" width="960" height="540" fill="#002233"></rect>
<path d="M0 212L13.3 197.8C26.7 183.7 53.3 155.3 80 146.8C106.7 138.3 133.3 149.7 160 142.7C186.7 135.7 213.3 110.3 240 119.3C266.7 128.3 293.3 171.7 320 182.3C346.7 193 373.3 171 400 157.7C426.7 144.3 453.3 139.7 480 146C506.7 152.3 533.3 169.7 560 182.5C586.7 195.3 613.3 203.7 640 205.7C666.7 207.7 693.3 203.3 720 182.7C746.7 162 773.3 125 800 122.7C826.7 120.3 853.3 152.7 880 169.8C906.7 187 933.3 189 946.7 190L960 191L960 0L946.7 0C933.3 0 906.7 0 880 0C853.3 0 826.7 0 800 0C773.3 0 746.7 0 720 0C693.3 0 666.7 0 640 0C613.3 0 586.7 0 560 0C533.3 0 506.7 0 480 0C453.3 0 426.7 0 400 0C373.3 0 346.7 0 320 0C293.3 0 266.7 0 240 0C213.3 0 186.7 0 160 0C133.3 0 106.7 0 80 0C53.3 0 26.7 0 13.3 0L0 0Z" fill="#0066FF" stroke-linecap="round" stroke-linejoin="miter">
</path>
</svg>