<svg id="visual" viewBox="0 0 960 540" width="960" height="540" xmlns="http://www.w3.org/2000/svg" xmlns:xlink="http://www.w3.org/1999/xlink" version="1.1"><rect x="0" y="0" width="960" height="540" fill="#002233"></rect><path d="M0 40L8.8 40.2C17.7 40.3 35.3 40.7 53.2 35.3C71 30 89 19 106.8 15.3C124.7 11.7 142.3 15.3 160 17C177.7 18.7 195.3 18.3 213.2 20.7C231 23 249 28 266.8 26.8C284.7 25.7 302.3 18.3 320 17.3C337.7 16.3 355.3 21.7 373.2 26.5C391 31.3 409 35.7 426.8 38.5C444.7 41.3 462.3 42.7 480 38.3C497.7 34 515.3 24 533.2 23.3C551 22.7 569 31.3 586.8 36.8C604.7 42.3 622.3 44.7 640 39.3C657.7 34 675.3 21 693.2 21.2C711 21.3 729 34.7 746.8 40.8C764.7 47 782.3 46 800 44.7C817.7 43.3 835.3 41.7 853.2 38.2C871 34.7 889 29.3 906.8 26.8C924.7 24.3 942.3 24.7 951.2 24.8L960 25L960 0L951.2 0C942.3 0 924.7 0 906.8 0C889 0 871 0 853.2 0C835.3 0 817.7 0 800 0C782.3 0 764.7 0 746.8 0C729 0 711 0 693.2 0C675.3 0 657.7 0 640 0C622.3 0 604.7 0 586.8 0C569 0 551 0 533.2 0C515.3 0 497.7 0 480 0C462.3 0 444.7 0 426.8 0C409 0 391 0 373.2 0C355.3 0 337.7 0 320 0C302.3 0 284.7 0 266.8 0C249 0 231 0 213.2 0C195.3 0 177.7 0 160 0C142.3 0 124.7 0 106.8 0C89 0 71 0 53.2 0C35.3 0 17.7 0 8.8 0L0 0Z" fill="#0066FF" stroke-linecap="round" stroke-linejoin="miter"></path></svg>